<svg xmlns="http://www.w3.org/2000/svg" viewBox="0 0 128 128" width="128" height="128">
  <rect width="128" height="128" fill="#4f46e5" rx="20"/>
  <g fill="none" stroke="white" stroke-width="6" stroke-linecap="round" stroke-linejoin="round">
    <!-- Left building -->
    <rect x="20" y="40" width="24" height="60"/>
    <line x1="20" y1="50" x2="44" y2="50"/>
    <line x1="20" y1="60" x2="44" y2="60"/>
    <line x1="20" y1="70" x2="44" y2="70"/>
    <line x1="20" y1="80" x2="44" y2="80"/>
    <line x1="20" y1="90" x2="44" y2="90"/>
    
    <!-- Middle building (taller) -->
    <rect x="52" y="20" width="24" height="80"/>
    <line x1="52" y1="35" x2="76" y2="35"/>
    <line x1="52" y1="50" x2="76" y2="50"/>
    <line x1="52" y1="65" x2="76" y2="65"/>
    <line x1="52" y1="80" x2="76" y2="80"/>
    
    <!-- Right building -->
    <rect x="84" y="50" width="24" height="50"/>
    <line x1="84" y1="60" x2="108" y2="60"/>
    <line x1="84" y1="72" x2="108" y2="72"/>
    <line x1="84" y1="84" x2="108" y2="84"/>
  </g>
</svg>